<?xml version="1.0" encoding="UTF-8"?>
<svg version="1.1" xmlns="http://www.w3.org/2000/svg" width="231" height="255">
<path d="M0 0 C76.23 0 152.46 0 231 0 C231 84.15 231 168.3 231 255 C154.77 255 78.54 255 0 255 C0 170.85 0 86.7 0 0 Z " fill="#FEFEFE" transform="translate(0,0)"/>
<path d="M0 0 C9.84225061 -0.29556308 18.23528301 0.7354685 26.21484375 6.8828125 C32.85436587 13.36234614 35.30747634 20.1163592 35.43041992 29.37133789 C35.17629033 33.28827858 34.49363992 35.03233095 31.7890625 37.8984375 C28.71898928 39.9226616 25.637571 41.57635055 22.33984375 43.1953125 C21.5921875 43.75605469 20.84453125 44.31679688 20.07421875 44.89453125 C18.33984375 46.1953125 18.33984375 46.1953125 16.33984375 46.1953125 C16.00984375 51.1453125 15.67984375 56.0953125 15.33984375 61.1953125 C16.98984375 60.2053125 18.63984375 59.2153125 20.33984375 58.1953125 C21.64225277 59.72791474 22.93131887 61.27186077 24.21484375 62.8203125 C25.29378906 64.10808594 25.29378906 64.10808594 26.39453125 65.421875 C31.82257283 73.16064914 31.338133 83.11429503 30.33984375 92.1953125 C28.25288149 100.44463543 24.3364121 107.95663562 17.0859375 112.65625 C7.56473127 117.81170752 -2.09366128 118.49801589 -12.7578125 118.42578125 C-13.87328964 118.42532303 -14.98876678 118.42486481 -16.13804626 118.4243927 C-18.47509843 118.42139119 -20.81214897 118.41356862 -23.14916992 118.40112305 C-26.74339789 118.38270622 -30.33737009 118.38061475 -33.93164062 118.38085938 C-36.2070335 118.37594946 -38.48242462 118.37012345 -40.7578125 118.36328125 C-41.83684341 118.36216843 -42.91587433 118.3610556 -44.02760315 118.35990906 C-45.510662 118.35033928 -45.510662 118.35033928 -47.02368164 118.34057617 C-47.8973085 118.33676437 -48.77093536 118.33295258 -49.67103577 118.32902527 C-51.66015625 118.1953125 -51.66015625 118.1953125 -52.66015625 117.1953125 C-53.31711694 109.09781577 -52.147944 100.89506971 -51.328125 92.8515625 C-50.15074627 80.9035448 -49.13706629 68.95128864 -48.2734375 56.9765625 C-48.2190942 56.22386078 -48.1647509 55.47115906 -48.10876083 54.69564819 C-47.78060747 50.13480273 -47.45768775 45.5735983 -47.13635254 41.01226807 C-46.85721621 37.06137532 -46.57389979 33.1107821 -46.29101562 29.16015625 C-45.74348223 21.50548331 -45.20028605 13.85051182 -44.66015625 6.1953125 C-40.90046402 4.91054712 -37.40895872 3.88055371 -33.46484375 3.37890625 C-32.50771484 3.25491455 -31.55058594 3.13092285 -30.56445312 3.00317383 C-29.56478516 2.88095459 -28.56511719 2.75873535 -27.53515625 2.6328125 C-25.98538086 2.43884888 -25.98538086 2.43884888 -24.40429688 2.2409668 C-16.26754375 1.23799005 -8.1862583 0.43683342 0 0 Z " fill="#040303" transform="translate(59.66015625,7.8046875)"/>
<path d="M0 0 C8.80244337 6.92100509 10.79648672 18.40334846 12.5390625 28.8515625 C13.65098122 35.41546976 15.10178862 41.91087217 16.484375 48.421875 C18.33173806 57.20006162 20.06838924 65.88846985 21 74.81640625 C21.42360673 77.87186587 22.12465519 80.78995071 22.90039062 83.77319336 C25.20675051 92.99971266 27.56809974 103.33689252 26.421875 112.859375 C24.56473443 114.71651557 21.49680451 113.98986181 19.015625 113.9921875 C17.71496094 113.99347656 16.41429687 113.99476563 15.07421875 113.99609375 C14.39343262 113.99399902 13.71264648 113.9919043 13.01123047 113.98974609 C10.93058985 113.9843974 8.85016511 113.9896918 6.76953125 113.99609375 C4.81853516 113.99416016 4.81853516 113.99416016 2.828125 113.9921875 C1.62478516 113.99105957 0.42144531 113.98993164 -0.81835938 113.98876953 C-3.578125 113.859375 -3.578125 113.859375 -4.578125 112.859375 C-4.80483408 111.30184449 -4.97247592 109.73560141 -5.11328125 108.16796875 C-5.19199463 107.31775146 -5.27070801 106.46753418 -5.35180664 105.59155273 C-5.4471167 104.50430908 -5.54242676 103.41706543 -5.640625 102.296875 C-5.95 98.8525 -6.259375 95.408125 -6.578125 91.859375 C-14.828125 93.179375 -23.078125 94.499375 -31.578125 95.859375 C-31.908125 98.499375 -32.238125 101.139375 -32.578125 103.859375 C-32.88228142 105.51084929 -33.2095778 107.15856751 -33.578125 108.796875 C-33.743125 109.54839844 -33.908125 110.29992187 -34.078125 111.07421875 C-34.578125 112.859375 -34.578125 112.859375 -35.578125 113.859375 C-37.6386781 113.95931032 -39.7026509 113.99018406 -41.765625 113.9921875 C-43.02117187 113.99347656 -44.27671875 113.99476563 -45.5703125 113.99609375 C-46.22741211 113.99399902 -46.88451172 113.9919043 -47.56152344 113.98974609 C-49.56973835 113.98439734 -51.57772959 113.98969191 -53.5859375 113.99609375 C-54.84148437 113.99480469 -56.09703125 113.99351562 -57.390625 113.9921875 C-58.55207031 113.99105957 -59.71351563 113.98993164 -60.91015625 113.98876953 C-63.578125 113.859375 -63.578125 113.859375 -64.578125 112.859375 C-65.09680323 105.91394939 -63.53270314 100.05414704 -61.578125 93.421875 C-61.26198242 92.32713867 -60.94583984 91.23240234 -60.62011719 90.10449219 C-59.62290369 86.68421626 -58.60479003 83.27091785 -57.578125 79.859375 C-57.1130957 78.30742432 -57.1130957 78.30742432 -56.63867188 76.72412109 C-51.41654734 59.46394622 -45.16707781 42.63918031 -38.578125 25.859375 C-38.12050781 24.67569336 -37.66289062 23.49201172 -37.19140625 22.27246094 C-35.88218648 18.89718734 -34.54748428 15.53328339 -33.203125 12.171875 C-32.6145874 10.64808228 -32.6145874 10.64808228 -32.01416016 9.09350586 C-31.44640869 7.7033728 -31.44640869 7.7033728 -30.8671875 6.28515625 C-30.54443848 5.47473877 -30.22168945 4.66432129 -29.88916016 3.8293457 C-27.66622671 0.48915018 -24.4930183 0.04987333 -20.7265625 -0.734375 C-5.96505624 -2.63908549 -5.96505624 -2.63908549 0 0 Z " fill="#070607" transform="translate(195.578125,130.140625)"/>
<path d="M0 0 C20.00252399 14.09123495 26.85659279 35.58906748 30.9296875 58.71484375 C31.09984375 59.70742187 31.27 60.7 31.4453125 61.72265625 C31.77144531 60.51867187 32.09757812 59.3146875 32.43359375 58.07421875 C32.87441062 56.49853291 33.31584926 54.92302093 33.7578125 53.34765625 C33.97115234 52.55359375 34.18449219 51.75953125 34.40429688 50.94140625 C34.62021484 50.18085937 34.83613281 49.4203125 35.05859375 48.63671875 C35.25235596 47.93498535 35.44611816 47.23325195 35.64575195 46.51025391 C36.4453125 44.72265625 36.4453125 44.72265625 39.4453125 42.72265625 C43.0703125 42.97265625 43.0703125 42.97265625 46.4453125 43.72265625 C49.18474608 49.20152342 45.86255089 57.4813049 44.16015625 63.0390625 C43.93961075 63.7809935 43.71906525 64.5229245 43.49183655 65.28733826 C42.79601208 67.62216593 42.08963352 69.95363698 41.3828125 72.28515625 C40.90489254 73.8819502 40.42767279 75.47895389 39.95117188 77.07617188 C38.79061888 80.960801 37.62059923 84.84246062 36.4453125 88.72265625 C33.71817613 89.19471844 30.99443189 89.62567027 28.2578125 90.03515625 C27.10442383 90.24108398 27.10442383 90.24108398 25.92773438 90.45117188 C23.67158542 90.77071229 21.71279275 90.96573371 19.4453125 90.72265625 C16.5715332 88.44482422 16.5715332 88.44482422 14.4453125 85.72265625 C13.68190552 84.95139404 13.68190552 84.95139404 12.90307617 84.16455078 C12.47744385 83.73255371 12.05181152 83.30055664 11.61328125 82.85546875 C5.01154682 76.17291939 5.01154682 76.17291939 -1.9296875 69.84765625 C-2.54585938 69.31527344 -3.16203125 68.78289062 -3.796875 68.234375 C-4.9858834 67.21182778 -6.17871191 66.19370852 -7.375 65.1796875 C-10.11492625 62.70101004 -11.46602068 61.22510159 -12.1171875 57.53515625 C-11.5546875 54.72265625 -11.5546875 54.72265625 -10.3671875 52.84765625 C-7.80498253 51.25732213 -6.55327818 51.27560898 -3.5546875 51.72265625 C-1.27692482 53.49293813 0.66747868 55.20175159 2.6953125 57.22265625 C3.83917811 58.3223074 4.98371298 59.42126281 6.12890625 60.51953125 C6.68819824 61.06287109 7.24749023 61.60621094 7.82373047 62.16601562 C10.07976445 64.33169955 12.4116877 66.40538939 14.7578125 68.47265625 C15.47582031 69.106875 16.19382812 69.74109375 16.93359375 70.39453125 C17.68189453 71.05195313 17.68189453 71.05195313 18.4453125 71.72265625 C17.83012471 50.86779004 13.75153971 30.14996725 -1.32421875 14.7109375 C-9.77117504 7.18116385 -18.13882353 5.0350037 -29.39453125 5.3515625 C-44.17055484 6.30234396 -61.30313437 17.47110312 -71.5546875 27.72265625 C-72.2146875 27.72265625 -72.8746875 27.72265625 -73.5546875 27.72265625 C-74.90351158 28.357397 -76.2393534 29.02114473 -77.5546875 29.72265625 C-78.2204514 16.78085556 -78.2204514 16.78085556 -74.06542969 12.01416016 C-69.38365255 8.122667 -63.984897 5.41241708 -58.5546875 2.72265625 C-57.78382812 2.32546387 -57.01296875 1.92827148 -56.21875 1.51904297 C-37.63712258 -8.02148118 -18.69205674 -11.92424309 0 0 Z " fill="#D406E2" transform="translate(151.5546875,40.27734375)"/>
<path d="M0 0 C1.60546875 1.96875 1.60546875 1.96875 3.1875 4.5 C3.71730469 5.3353125 4.24710938 6.170625 4.79296875 7.03125 C5.19128906 7.6809375 5.58960938 8.330625 6 9 C3.38586792 10.74275472 0.75036657 12.18289295 -2.04003906 13.61450195 C-10.07381981 17.75648234 -18.33097145 22.16733727 -24.671875 28.73046875 C-26 30 -26 30 -28 30 C-29.34882408 30.63474075 -30.6846659 31.29848848 -32 32 C-32.28247893 26.50888518 -32.34971295 21.07806398 -30 16 C-25.41411246 10.97103829 -18.99520471 8.02692217 -13 5 C-11.93007812 4.4121875 -10.86015625 3.824375 -9.7578125 3.21875 C-3.73159722 0 -3.73159722 0 0 0 Z " fill="#D004DE" transform="translate(106,38)"/>
<path d="M0 0 C0.4079951 3.60395672 0.25891023 6.25779068 -0.9375 9.6875 C-6.14111986 15.52186166 -13.54811373 16.52686436 -21 17 C-21.12022642 11.22913206 -20.91696124 5.70553659 -20 0 C-16.01041356 -3.98958644 -4.16312485 -2.77541657 0 0 Z " fill="#F3F4F3" transform="translate(61,38)"/>
<path d="M0 0 C0.99 0.66 1.98 1.32 3 2 C3.65238336 6.89287521 3.60763043 8.98074896 1.0625 13.25 C-2.24045902 16.69411111 -6.456344 18.67736041 -11 20 C-12.65 20 -14.3 20 -16 20 C-16 14.39 -16 8.78 -16 3 C-10.31028145 0.56154919 -6.19527301 -0.52502314 0 0 Z " fill="#F0F3F5" transform="translate(54,80)"/>
<path d="M0 0 C-0.29390625 0.80050781 -0.5878125 1.60101563 -0.890625 2.42578125 C-1.05921989 7.93522141 1.97503909 10.95476751 5.25 15.1875 C5.84941406 15.99380859 6.44882813 16.80011719 7.06640625 17.63085938 C9.55561707 20.95072702 12.00077381 24.12283534 15 27 C13.65289578 31.04131267 11.61571666 31.90288434 8 34 C7.01 34 6.02 34 5 34 C4.84442627 33.47156494 4.68885254 32.94312988 4.52856445 32.39868164 C0.93118157 19.49310437 0.93118157 19.49310437 -5.21484375 7.69140625 C-6 6 -6 6 -5.81640625 3.90234375 C-4.62993949 1.1377059 -3.02871979 0 0 0 Z " fill="#CC05D9" transform="translate(164,59)"/>
<path d="M0 0 C7.02766437 6.19103766 10.25373293 17.06952892 12 26 C12 26.99 12 27.98 12 29 C8.4569524 27.81898413 7.95809452 26.9031668 5.8984375 23.88671875 C5.03992188 22.6327832 5.03992188 22.6327832 4.1640625 21.35351562 C3.57367188 20.47373047 2.98328125 19.59394531 2.375 18.6875 C1.4778125 17.38522461 1.4778125 17.38522461 0.5625 16.05664062 C-4.70283545 8.29563147 -4.70283545 8.29563147 -5 5 C-2.5625 2.25 -2.5625 2.25 0 0 Z " fill="#D907E6" transform="translate(167,57)"/>
<path d="M0 0 C0.66 0 1.32 0 2 0 C5.44419134 16.70842825 5.44419134 16.70842825 5 25 C1.04 25 -2.92 25 -7 25 C-4.96564787 16.55743865 -2.62963259 8.27600104 0 0 Z " fill="#E3ECEE" transform="translate(180,172)"/>
<path d="M0 0 C1.98 0.495 1.98 0.495 4 1 C3.67 1.66 3.34 2.32 3 3 C3.99 3 4.98 3 6 3 C6.50838564 5.03959477 7.00633886 7.08179138 7.5 9.125 C7.7784375 10.26195312 8.056875 11.39890625 8.34375 12.5703125 C8.96453765 15.81466698 9.12006768 18.70814457 9 22 C8.34 22 7.68 22 7 22 C4.96564469 18.27034861 4 16.33094958 4 12 C2.35 11.67 0.7 11.34 -1 11 C-0.67 7.37 -0.34 3.74 0 0 Z " fill="#EBEEEC" transform="translate(203,216)"/>
<path d="M0 0 C3.29683832 -0.36306212 4.67401245 -0.22285318 7.45703125 1.6796875 C8.23433594 2.40414062 9.01164063 3.12859375 9.8125 3.875 C10.60269531 4.59429687 11.39289063 5.31359375 12.20703125 6.0546875 C14 8 14 8 14 10 C12.35 10.66 10.7 11.32 9 12 C7.68527053 10.37680325 6.37328338 8.751385 5.0625 7.125 C4.33160156 6.22007813 3.60070312 5.31515625 2.84765625 4.3828125 C1 2 1 2 0 0 Z " fill="#D80CE5" transform="translate(143,92)"/>
<path d="M0 0 C1 2 1 2 0.42675781 4.10717773 C-0.62388566 6.88737847 -1.67605002 9.66619416 -2.75 12.4375 C-3.1109375 13.40494141 -3.471875 14.37238281 -3.84375 15.36914062 C-4.19953125 16.29791016 -4.5553125 17.22667969 -4.921875 18.18359375 C-5.24768555 19.03493896 -5.57349609 19.88628418 -5.90917969 20.76342773 C-7.00771489 23.01581828 -8.12688665 24.36085894 -10 26 C-9.26892293 21.43522609 -7.75258154 17.30316679 -6.125 13 C-5.86847656 12.30132812 -5.61195313 11.60265625 -5.34765625 10.8828125 C-3.88789909 6.99501706 -2.28160072 3.49754362 0 0 Z " fill="#A7C2BF" transform="translate(175,175)"/>
<path d="M0 0 C0.33 0 0.66 0 1 0 C2.26305335 5.07476794 3.27036084 9.72796354 3 15 C2.34 15 1.68 15 1 15 C-2.07192807 9.59340659 -2.07192807 9.59340659 -1.75 6.9375 C-1.5025 6.298125 -1.255 5.65875 -1 5 C-0.65939189 3.33480481 -0.32441604 1.66842534 0 0 Z " fill="#D4CAB5" transform="translate(209,223)"/>
<path d="M0 0 C0.66 0 1.32 0 2 0 C2 3.3 2 6.6 2 10 C0.02 10.66 -1.96 11.32 -4 12 C-3.67 11.01 -3.34 10.02 -3 9 C-2.34 9 -1.68 9 -1 9 C-0.67 6.03 -0.34 3.06 0 0 Z " fill="#A2A58E" transform="translate(32,107)"/>
<path d="M0 0 C-0.165 0.928125 -0.33 1.85625 -0.5 2.8125 C-1.07748388 5.95621353 -1.07748388 5.95621353 -1 9 C-3 7.1875 -3 7.1875 -5 5 C-5 4.01 -5 3.02 -5 2 C-2 0 -2 0 0 0 Z " fill="#AE02B9" transform="translate(164,59)"/>
</svg>
