<?xml version="1.0" encoding="UTF-8"?>
<svg version="1.1" xmlns="http://www.w3.org/2000/svg" width="599" height="170">
<path d="M0 0 C197.67 0 395.34 0 599 0 C599 56.1 599 112.2 599 170 C401.33 170 203.66 170 0 170 C0 113.9 0 57.8 0 0 Z " fill="#FEFDFE" transform="translate(0,0)"/>
<path d="M0 0 C3.61502667 3.42436071 6.84078854 6.75573083 7.203125 11.86328125 C7.21859375 13.00152344 7.2340625 14.13976562 7.25 15.3125 C7.27578125 16.44300781 7.3015625 17.57351562 7.328125 18.73828125 C6.96599631 22.3380129 6.18868687 24.14807469 4 27 C2.989375 27.53625 1.97875 28.0725 0.9375 28.625 C-3.08201614 31.87482156 -3.11034238 34.76766255 -3.7734375 39.734375 C-3.84820312 40.48203125 -3.92296875 41.2296875 -4 42 C-2.68 41.34 -1.36 40.68 0 40 C4.53103044 46.57730225 5.77115757 51.10960517 5 59 C3.44214336 65.68786865 0.57862048 70.09138963 -4.609375 74.52734375 C-10.99995683 78.4640257 -16.72035867 79.44328319 -24.05859375 79.328125 C-25.30323143 79.32531525 -25.30323143 79.32531525 -26.57301331 79.32244873 C-28.31002885 79.31577416 -30.04703055 79.30195247 -31.78393555 79.28125 C-34.45440489 79.24980092 -37.12428479 79.24024399 -39.79492188 79.234375 C-41.48698644 79.22521557 -43.17904497 79.21484321 -44.87109375 79.203125 C-45.67203964 79.19887512 -46.47298553 79.19462524 -47.29820251 79.19024658 C-52.88276271 79.11723729 -52.88276271 79.11723729 -54 78 C-54.46987616 68.62694177 -53.7788433 59.27176322 -52.9765625 49.9375 C-52.87032562 48.66197266 -52.76408875 47.38644531 -52.65463257 46.07226562 C-52.43056602 43.40318409 -52.20412671 40.73443825 -51.97363281 38.06591797 C-51.67988608 34.65978878 -51.39832426 31.25277352 -51.12001991 27.84535217 C-50.8500215 24.5629743 -50.56898011 21.28154455 -50.2890625 18 C-50.19001617 16.7843335 -50.09096985 15.56866699 -49.98892212 14.31616211 C-49.88896942 13.18057861 -49.78901672 12.04499512 -49.68603516 10.875 C-49.60165192 9.88242187 -49.51726868 8.88984375 -49.43032837 7.8671875 C-48.96180681 4.74552679 -48.07677592 1.96194919 -47 -1 C-42.91806133 -1.51183046 -38.83427904 -2.00722286 -34.75 -2.5 C-33.04070313 -2.71462891 -33.04070313 -2.71462891 -31.296875 -2.93359375 C-8.32302748 -5.67479147 -8.32302748 -5.67479147 0 0 Z " fill="#040404" transform="translate(61,16)"/>
<path d="M0 0 C7.00049721 4.62032816 7.83391936 15.53044921 9.50402832 23.36416626 C10.52081689 28.40356299 11.44814443 33.45797992 12.34741211 38.51953125 C12.81847306 41.15846168 13.30625783 43.79396644 13.79492188 46.4296875 C14.09996222 48.12221521 14.40403536 49.8149176 14.70703125 51.5078125 C14.85276077 52.28802765 14.9984903 53.0682428 15.14863586 53.87210083 C15.88727877 58.11920258 15.86799683 60.66001584 15 65 C9.39 65 3.78 65 -2 65 C-2.93491183 60.32544083 -3.07972012 56.7034873 -3 52 C-7.62 52.99 -12.24 53.98 -17 55 C-17.99 58.3 -18.98 61.6 -20 65 C-25.28 65 -30.56 65 -36 65 C-37.22915163 58.85424183 -36.05905075 55.10586839 -34.375 49.1875 C-34.07303711 48.11612793 -33.77107422 47.04475586 -33.45996094 45.94091797 C-30.6076953 36.27917696 -27.03491575 26.95366993 -23.25 17.625 C-22.96437195 16.91628754 -22.6787439 16.20757507 -22.38446045 15.47738647 C-21.56354971 13.45181643 -20.73013658 11.43198522 -19.890625 9.4140625 C-19.40625977 8.2482666 -18.92189453 7.0824707 -18.42285156 5.88134766 C-14.51787602 -2.02642884 -8.06763047 -1.07947168 0 0 Z " fill="#080808" transform="translate(143,93)"/>
<path d="M0 0 C2.2734375 1.40234375 2.2734375 1.40234375 4.4375 3 C5.21351562 3.55816406 5.98953125 4.11632813 6.7890625 4.69140625 C18.78493938 14.30014375 22.98922478 28.61995864 26.4375 43 C26.63085938 42.22914062 26.82421875 41.45828125 27.0234375 40.6640625 C27.28382813 39.66117188 27.54421875 38.65828125 27.8125 37.625 C28.06773437 36.62726563 28.32296875 35.62953125 28.5859375 34.6015625 C29.4375 32 29.4375 32 31.4375 30 C34.0625 30.375 34.0625 30.375 36.4375 31 C36.65336249 37.09289292 35.91632045 42.39727931 34.5 48.3125 C34.31759766 49.10978516 34.13519531 49.90707031 33.94726562 50.72851562 C33.21869354 53.87859639 32.46089119 56.92982644 31.4375 60 C30.51066406 60.04898438 29.58382812 60.09796875 28.62890625 60.1484375 C27.43136719 60.22320312 26.23382813 60.29796875 25 60.375 C23.20755859 60.47941406 23.20755859 60.47941406 21.37890625 60.5859375 C20.40824219 60.72257812 19.43757813 60.85921875 18.4375 61 C18.1075 61.66 17.7775 62.32 17.4375 63 C16.91542969 62.52691406 16.39335938 62.05382812 15.85546875 61.56640625 C10.56694564 56.81507112 5.15009817 52.25895102 -0.375 47.78515625 C-1.46815191 46.89306621 -2.56480121 45.99769879 -3.5625 45 C-3.60330783 43.00041636 -3.60504356 40.99954746 -3.5625 39 C-1.40625 38.23828125 -1.40625 38.23828125 1.4375 38 C4.15625 39.73046875 4.15625 39.73046875 6.9375 42.1875 C7.8553125 42.98542969 8.773125 43.78335938 9.71875 44.60546875 C10.6159375 45.39566406 11.513125 46.18585938 12.4375 47 C14.09680331 48.34248578 15.76110063 49.67892441 17.4375 51 C16.16380657 35.71567884 12.23518897 21.51300415 0.4375 11 C-6.15616079 6.3581629 -13.74056516 5.71844005 -21.5625 7 C-30.85804269 10.25812414 -38.37909767 15.79649023 -45.91796875 21.9609375 C-48.5625 24 -48.5625 24 -51.5625 25 C-52.09578978 20.99270822 -51.93779967 17.8218854 -50.5625 14 C-38.14573181 1.8058773 -17.04242077 -8.03582498 0 0 Z " fill="#D50AE2" transform="translate(108.5625,33)"/>
<path d="M0 0 C3.3 0 6.6 0 10 0 C10 0.66 10 1.32 10 2 C10.70253906 1.84273437 11.40507812 1.68546875 12.12890625 1.5234375 C17.52163187 0.54027392 24.03443109 -0.49393321 29.078125 2.046875 C31.19782184 3.79613938 32.7679236 5.5358472 34 8 C34.06135711 14.13571108 32.79703688 18.22308264 29 23 C29.99 23.33 30.98 23.66 32 24 C36.81730918 30.63789759 36.4363186 38.1583852 36 46 C32.7 46 29.4 46 26 46 C26.03480469 45.02417969 26.06960938 44.04835937 26.10546875 43.04296875 C26.13253906 41.77066406 26.15960938 40.49835938 26.1875 39.1875 C26.22230469 37.92292969 26.25710938 36.65835938 26.29296875 35.35546875 C26.25139146 32.12449033 26.25139146 32.12449033 24.90625 30.125 C22.12446991 28.48329372 19.50121637 28.22292884 16.3125 27.8125 C14.229375 27.544375 12.14625 27.27625 10 27 C10 33.6 10 40.2 10 47 C5.05 45.515 5.05 45.515 0 44 C0 29.48 0 14.96 0 0 Z " fill="#DA06E7" transform="translate(351,37)"/>
<path d="M0 0 C0 15.51 0 31.02 0 47 C-10 46 -10 46 -12.51220703 43.40795898 C-13.08825684 42.28204346 -13.66430664 41.15612793 -14.2578125 39.99609375 C-14.5766037 39.39821548 -14.8953949 38.80033722 -15.22384644 38.18434143 C-16.22653794 36.28490055 -17.17539837 34.36393802 -18.125 32.4375 C-18.79869162 31.13951002 -19.47574535 29.8432592 -20.15625 28.54882812 C-21.81763259 25.38612298 -23.40349955 22.19938689 -25 19 C-25.66 28.9 -26.32 38.8 -27 49 C-32.445 47.515 -32.445 47.515 -38 46 C-37.51171875 43.13541667 -37.0234375 40.27083333 -36.53515625 37.40625 C-35.27965444 29.4150268 -34.73232382 21.58107262 -34.4375 13.5 C-34.39431641 12.39140625 -34.35113281 11.2828125 -34.30664062 10.140625 C-34.20137786 7.42718494 -34.09924154 4.71366583 -34 2 C-29.545 1.505 -29.545 1.505 -25 1 C-24.50371094 2.01578125 -24.00742187 3.0315625 -23.49609375 4.078125 C-17.48065111 17.8922465 -17.48065111 17.8922465 -9 30 C-9 20.43 -9 10.86 -9 1 C-1 0 -1 0 0 0 Z " fill="#DA09E7" transform="translate(527,36)"/>
<path d="M0 0 C0 15.51 0 31.02 0 47 C-10 46 -10 46 -12.51220703 43.40795898 C-13.08825684 42.28204346 -13.66430664 41.15612793 -14.2578125 39.99609375 C-14.5766037 39.39821548 -14.8953949 38.80033722 -15.22384644 38.18434143 C-16.22653794 36.28490055 -17.17539837 34.36393802 -18.125 32.4375 C-18.79869162 31.13951002 -19.47574535 29.8432592 -20.15625 28.54882812 C-21.81763259 25.38612298 -23.40349955 22.19938689 -25 19 C-25.66 28.9 -26.32 38.8 -27 49 C-32.445 47.515 -32.445 47.515 -38 46 C-37.51171875 43.13541667 -37.0234375 40.27083333 -36.53515625 37.40625 C-35.27965444 29.4150268 -34.73232382 21.58107262 -34.4375 13.5 C-34.39431641 12.39140625 -34.35113281 11.2828125 -34.30664062 10.140625 C-34.20137786 7.42718494 -34.09924154 4.71366583 -34 2 C-29.545 1.505 -29.545 1.505 -25 1 C-24.50371094 2.01578125 -24.00742187 3.0315625 -23.49609375 4.078125 C-17.48065111 17.8922465 -17.48065111 17.8922465 -9 30 C-9 20.43 -9 10.86 -9 1 C-1 0 -1 0 0 0 Z " fill="#DA09E7" transform="translate(442,36)"/>
<path d="M0 0 C10.89 0 21.78 0 33 0 C33 3.3 33 6.6 33 10 C25.41 9.67 17.82 9.34 10 9 C10 12.63 10 16.26 10 20 C17.26 20 24.52 20 32 20 C32 22.97 32 25.94 32 29 C24.74 28.67 17.48 28.34 10 28 C10 31.63 10 35.26 10 39 C17.92 38.67 25.84 38.34 34 38 C34 41.3 34 44.6 34 48 C33.25314941 47.99476318 32.50629883 47.98952637 31.73681641 47.98413086 C28.36621943 47.96339599 24.99563586 47.95035101 21.625 47.9375 C20.449375 47.92912109 19.27375 47.92074219 18.0625 47.91210938 C16.94101562 47.90888672 15.81953125 47.90566406 14.6640625 47.90234375 C13.62717285 47.89710693 12.5902832 47.89187012 11.52197266 47.88647461 C9.0040332 47.82859185 9.0040332 47.82859185 7 49 C4.283422 48.5254171 1.65810556 47.72883539 -1 47 C-0.9285376 46.4227417 -0.8570752 45.8454834 -0.78344727 45.25073242 C0.22419794 35.94079471 0.1113455 26.66226532 0.0625 17.3125 C0.05747338 15.62825654 0.05291253 13.94401163 0.04882812 12.25976562 C0.03877733 8.17311078 0.01918621 4.08666247 0 0 Z " fill="#DA0AE7" transform="translate(245,36)"/>
<path d="M0 0 C0 2.97 0 5.94 0 9 C-2.50399183 8.58266803 -4.62015444 8.20624738 -6.86328125 6.98828125 C-10.76017782 5.18587754 -14.81278558 5.34064968 -19 6 C-23.03955192 8.92222905 -25.32393748 12.32466772 -27 17 C-27.71241799 22.98235928 -27.48774583 27.89294361 -24 33 C-22.48105194 35.09764165 -22.48105194 35.09764165 -20 36 C-15.51320569 35.97516535 -11.34057428 35.08514357 -7 34 C-7 31.03 -7 28.06 -7 25 C-10.96 25 -14.92 25 -19 25 C-19 22.36 -19 19.72 -19 17 C-12.07 17 -5.14 17 2 17 C1.67 25.91 1.34 34.82 1 44 C-1.64 44 -4.28 44 -7 44 C-7 43.34 -7 42.68 -7 42 C-7.969375 42.495 -8.93875 42.99 -9.9375 43.5 C-15.06000928 45.64814905 -19.88586806 46.10699843 -25.17578125 44.2265625 C-30.12138428 41.60008405 -32.89858458 38.09854911 -35.16015625 33.01953125 C-37.44076252 24.81995616 -36.82368306 15.97219852 -34 8 C-25.65957409 -5.11581489 -13.29673881 -4.75287685 0 0 Z " fill="#DA08E7" transform="translate(580,39)"/>
<path d="M0 0 C1.69141656 0.08963062 3.37959602 0.24577676 5.0625 0.4375 C6.44115234 0.59025391 6.44115234 0.59025391 7.84765625 0.74609375 C8.55792969 0.82988281 9.26820313 0.91367187 10 1 C10.36738281 2.11568359 10.36738281 2.11568359 10.7421875 3.25390625 C14.51944663 14.28610792 19.20448236 24.89069407 23.93432617 35.54321289 C27 42.61076747 27 42.61076747 27 46 C23.7 46.66 20.4 47.32 17 48 C16.65066406 47.07316406 16.30132812 46.14632812 15.94140625 45.19140625 C15.25884766 43.39509766 15.25884766 43.39509766 14.5625 41.5625 C14.11003906 40.36753906 13.65757812 39.17257813 13.19140625 37.94140625 C12.2855174 35.15554277 12.2855174 35.15554277 11 34 C8.98035801 33.92755947 6.95832876 33.91622812 4.9375 33.9375 C1.9984375 33.9684375 1.9984375 33.9684375 -1 34 C-2.98 38.29 -4.96 42.58 -7 47 C-13.93359375 44.8515625 -13.93359375 44.8515625 -16 44 C-16.33 43.34 -16.66 42.68 -17 42 C-15.88422687 39.37838671 -14.70588422 36.85931284 -13.4375 34.3125 C-8.22232675 23.52881577 -3.24541318 12.83945131 -1 1 C-0.67 0.67 -0.34 0.34 0 0 Z " fill="#D906E7" transform="translate(309,37)"/>
<path d="M0 0 C2.97 0 5.94 0 9 0 C9 12.87 9 25.74 9 39 C19.395 38.505 19.395 38.505 30 38 C30 40.64 30 43.28 30 46 C19.77 46 9.54 46 -1 46 C-0.67 43.36 -0.34 40.72 0 38 C0.07322069 36.53584642 0.11847801 35.06949054 0.11352539 33.60351562 C0.11344986 32.8433313 0.11337433 32.08314697 0.11329651 31.29992676 C0.10813522 30.51001343 0.10297394 29.7201001 0.09765625 28.90625 C0.09553383 27.65805481 0.09553383 27.65805481 0.09336853 26.38464355 C0.08782167 23.7563907 0.07527945 21.12822662 0.0625 18.5 C0.05747812 16.70573041 0.05291642 14.91145946 0.04882812 13.1171875 C0.03786972 8.74475805 0.02064248 4.37239402 0 0 Z " fill="#DA0AE8" transform="translate(199,37)"/>
<path d="M0 0 C3.3 0 6.6 0 10 0 C10.33 15.18 10.66 30.36 11 46 C7.04 46 3.08 46 -1 46 C-0.83701416 45.20255371 -0.67402832 44.40510742 -0.50610352 43.58349609 C0.10686869 39.2433099 0.12441792 35.04018274 0.09765625 30.6640625 C0.0962413 29.78471039 0.09482635 28.90535828 0.09336853 27.99935913 C0.08779877 25.20787058 0.0752519 22.41646406 0.0625 19.625 C0.05748109 17.72526158 0.05291887 15.8255219 0.04882812 13.92578125 C0.03783925 9.28382286 0.02059557 4.64192531 0 0 Z " fill="#DB12E8" transform="translate(460,37)"/>
<path d="M0 0 C6.27 0 12.54 0 19 0 C19 5.61 19 11.22 19 17 C14.71 17 10.42 17 6 17 C6 20.3 6 23.6 6 27 C4.02 27 2.04 27 0 27 C0 18.09 0 9.18 0 0 Z " fill="#D906E8" transform="translate(260,106)"/>
<path d="M0 0 C8.91 0 17.82 0 27 0 C27 5.94 27 11.88 27 18 C25.02 18 23.04 18 21 18 C21 13.38 21 8.76 21 4 C19.68 4 18.36 4 17 4 C17 8.62 17 13.24 17 18 C15.02 18 13.04 18 11 18 C11 13.38 11 8.76 11 4 C9.35 4 7.7 4 6 4 C6 8.62 6 13.24 6 18 C4.02 18 2.04 18 0 18 C0 12.06 0 6.12 0 0 Z " fill="#DA06E7" transform="translate(450,115)"/>
<path d="M0 0 C3.14581423 -0.02888514 6.29159469 -0.04675923 9.4375 -0.0625 C10.33533203 -0.07087891 11.23316406 -0.07925781 12.15820312 -0.08789062 C13.01220703 -0.09111328 13.86621094 -0.09433594 14.74609375 -0.09765625 C15.93223267 -0.10551147 15.93223267 -0.10551147 17.14233398 -0.11352539 C19 0 19 0 20 1 C20.08631874 2.34267413 20.10706473 3.68974322 20.09765625 5.03515625 C20.09515869 5.76355713 20.09266113 6.49195801 20.09008789 7.24243164 C20.08098389 8.1730542 20.07187988 9.10367676 20.0625 10.0625 C20.041875 13.011875 20.02125 15.96125 20 19 C13.4 19 6.8 19 0 19 C0 15.04 0 11.08 0 7 C4.29 7 8.58 7 13 7 C13 6.34 13 5.68 13 5 C8.71 5 4.42 5 0 5 C0 3.35 0 1.7 0 0 Z " fill="#DC1BE9" transform="translate(309,114)"/>
<path d="M0 0 C6.27 0 12.54 0 19 0 C19 5.94 19 11.88 19 18 C12.73 18 6.46 18 0 18 C0 12.06 0 6.12 0 0 Z " fill="#D906E8" transform="translate(393,115)"/>
<path d="M0 0 C3.96 0 7.92 0 12 0 C12 1.32 12 2.64 12 4 C10.02 4 8.04 4 6 4 C6 6.31 6 8.62 6 11 C7.98 11 9.96 11 12 11 C12 12.32 12 13.64 12 15 C10.02 15 8.04 15 6 15 C6 19.62 6 24.24 6 29 C4.02 29 2.04 29 0 29 C0 24.38 0 19.76 0 15 C-1.65 15 -3.3 15 -5 15 C-5 13.68 -5 12.36 -5 11 C-3.35 11 -1.7 11 0 11 C0 7.37 0 3.74 0 0 Z " fill="#DB08E7" transform="translate(369,104)"/>
<path d="M0 0 C2.52936767 1.14229508 3.512712 2.52409979 4.9375 4.875 C4.9375 5.535 4.9375 6.195 4.9375 6.875 C4.36644531 7.11992188 3.79539062 7.36484375 3.20703125 7.6171875 C-3.09278542 10.52171347 -8.31620456 14.14952395 -13.68237305 18.48388672 C-16.15279021 20.46914466 -18.02483197 21.86244399 -21.0625 22.875 C-21.59655967 18.86192307 -21.46121023 15.69621867 -20.0625 11.875 C-15.79867162 7.25521329 -6.39579076 -0.38762368 0 0 Z " fill="#D106DE" transform="translate(78.0625,35.125)"/>
<path d="M0 0 C1.98 0 3.96 0 6 0 C6 1.98 6 3.96 6 6 C7.65 6 9.3 6 11 6 C11 7.32 11 8.64 11 10 C9.35 10 7.7 10 6 10 C6 13.3 6 16.6 6 20 C7.32 20 8.64 20 10 20 C10 21.32 10 22.64 10 24 C6.7 24 3.4 24 0 24 C0 19.38 0 14.76 0 10 C-0.99 10 -1.98 10 -3 10 C-3 8.68 -3 7.36 -3 6 C-2.01 6 -1.02 6 0 6 C0 4.02 0 2.04 0 0 Z " fill="#DA07E8" transform="translate(343,109)"/>
<path d="M0 0 C1.98 0 3.96 0 6 0 C6 9.57 6 19.14 6 29 C4.02 29 2.04 29 0 29 C0 19.43 0 9.86 0 0 Z " fill="#D905E8" transform="translate(291,104)"/>
<path d="M0 0 C1.33417969 -0.00386719 1.33417969 -0.00386719 2.6953125 -0.0078125 C4.875 0.125 4.875 0.125 5.875 1.125 C5.8125 4.4375 5.8125 4.4375 4.875 8.125 C0.49778998 12.18192636 -3.40133055 12.73026418 -9.125 13.125 C-8.795 9.165 -8.465 5.205 -8.125 1.125 C-5.14619115 0.13206372 -3.10898802 -0.00906411 0 0 Z " fill="#F7F7F7" transform="translate(39.125,31.875)"/>
<path d="M0 0 C4.95 0 9.9 0 15 0 C15 1.32 15 2.64 15 4 C12.03 4 9.06 4 6 4 C6 8.62 6 13.24 6 18 C4.02 18 2.04 18 0 18 C0 12.06 0 6.12 0 0 Z " fill="#DA05E7" transform="translate(424,115)"/>
<path d="M0 0 C1 1 1 1 1.4375 3.75 C1 7 1 7 -1.5625 9.8125 C-4.84420878 12.25615904 -7.92063285 12.75523797 -12 13 C-12 9.04 -12 5.08 -12 1 C-7.6146681 -0.4617773 -4.47981638 -1.44935236 0 0 Z " fill="#F7F7F7" transform="translate(41,63)"/>
<path d="M0 0 C1.95825873 -0.02694851 3.91662226 -0.04637218 5.875 -0.0625 C6.96554687 -0.07410156 8.05609375 -0.08570313 9.1796875 -0.09765625 C12 0 12 0 14 1 C14 2.65 14 4.3 14 6 C9.03006806 8.43425238 5.65394631 9.34615998 0 9 C0 6.03 0 3.06 0 0 Z " fill="#FDF6FE" transform="translate(361,46)"/>
<path d="M0 0 C3.6809183 3.19173308 5.49092636 6.69661294 7.3125 11.125 C7.58900391 11.75792969 7.86550781 12.39085937 8.15039062 13.04296875 C8.83531575 14.66815632 9.42539814 16.33260989 10 18 C9.67 18.66 9.34 19.32 9 20 C7.55410731 18.46620188 6.11865196 16.92256145 4.6875 15.375 C3.48673828 14.08722656 3.48673828 14.08722656 2.26171875 12.7734375 C-0.01794872 9.97799034 -1.51580738 7.27579084 -3 4 C-2.01 2.68 -1.02 1.36 0 0 Z " fill="#D90EE6" transform="translate(122,46)"/>
<path d="M0 0 C2.31 0 4.62 0 7 0 C7 3.3 7 6.6 7 10 C4.69 10 2.38 10 0 10 C0 6.7 0 3.4 0 0 Z " fill="#FDF8FD" transform="translate(399,119)"/>
<path d="M0 0 C1.90389849 2.85584773 2.69462177 4.9311762 3.625 8.1875 C3.88539063 9.08855469 4.14578125 9.98960938 4.4140625 10.91796875 C4.60742188 11.60503906 4.80078125 12.29210938 5 13 C2.03 13 -0.94 13 -4 13 C-2.125 3.89285714 -2.125 3.89285714 0 0 Z " fill="#FBE6FC" transform="translate(314,49)"/>
<path d="M0 0 C2.31 0 4.62 0 7 0 C7 2.97 7 5.94 7 9 C4.69 9 2.38 9 0 9 C0 6.03 0 3.06 0 0 Z " fill="#FBE8FB" transform="translate(266,110)"/>
<path d="M0 0 C0.66 0 1.32 0 2 0 C3.10228696 4.40914783 3.07654536 8.48382401 3 13 C1.02 13 -0.96 13 -3 13 C-2.45144652 8.428721 -1.58255197 4.32564205 0 0 Z " fill="#EEEEEE" transform="translate(134,118)"/>
<path d="M0 0 C0.99 0.33 1.98 0.66 3 1 C1.98931527 6.34219072 1.01004071 9.23299206 -3 13 C-3.66 13.66 -4.32 14.32 -5 15 C-4.43174347 9.45949887 -2.37113483 4.96284034 0 0 Z " fill="#5E5E5E" transform="translate(131,118)"/>
<path d="M0 0 C0.66 0 1.32 0 2 0 C4.6875 2.75 4.6875 2.75 7 6 C6.8125 8.375 6.8125 8.375 6 10 C3.53199953 8.84826645 1.95216435 7.95216435 0 6 C-0.125 2.875 -0.125 2.875 0 0 Z " fill="#D90EE7" transform="translate(105,72)"/>
<path d="M0 0 C0.93423645 3.01031744 1.04449911 3.86650268 0 7 C-2.64 7 -5.28 7 -8 7 C-5.42215154 4.35247996 -3.08351902 2.05567935 0 0 Z " fill="#BE07CA" transform="translate(140,86)"/>
<path d="M0 0 C2 1 2 1 3.125 3.25 C4.00513321 6.01613295 4.1645438 8.12048351 4 11 C3.731875 10.360625 3.46375 9.72125 3.1875 9.0625 C2.11332248 6.66868314 2.11332248 6.66868314 -1 6 C-0.67 4.02 -0.34 2.04 0 0 Z " fill="#F3F3F3" transform="translate(148,142)"/>
<path d="M0 0 C1.65 0 3.3 0 5 0 C5.33 1.65 5.66 3.3 6 5 C4.02 5 2.04 5 0 5 C0.33 4.01 0.66 3.02 1 2 C0.67 1.34 0.34 0.68 0 0 Z " fill="#4B4B4B" transform="translate(141,125)"/>
<path d="M0 0 C0.33 0 0.66 0 1 0 C1 2.64 1 5.28 1 8 C-0.65 8.66 -2.3 9.32 -4 10 C-3.67 9.01 -3.34 8.02 -3 7 C-2.34 7 -1.68 7 -1 7 C-1.020625 6.030625 -1.04125 5.06125 -1.0625 4.0625 C-1 1 -1 1 0 0 Z " fill="#828282" transform="translate(25,80)"/>
<path d="M0 0 C0.66 0 1.32 0 2 0 C0.125 4.75 0.125 4.75 -1 7 C-2.32 6.01 -3.64 5.02 -5 4 C-4.67 3.01 -4.34 2.02 -4 1 C-3.01 1 -2.02 1 -1 1 C-0.67 0.67 -0.34 0.34 0 0 Z " fill="#BD04C9" transform="translate(120,46)"/>
<path d="M0 0 C0.98120464 3.05263664 0.98120464 4.94736336 0 8 C0.66 8.33 1.32 8.66 2 9 C0.35 8.67 -1.3 8.34 -3 8 C-2.74438677 5.6568787 -2.40729228 3.32156597 -2 1 C-1.34 0.67 -0.68 0.34 0 0 Z " fill="#636363" transform="translate(30,37)"/>
<path d="M0 0 C2.31 0 4.62 0 7 0 C7 0.99 7 1.98 7 3 C4.69 3 2.38 3 0 3 C0 2.01 0 1.02 0 0 Z " fill="#FCF7FE" transform="translate(315,126)"/>
<path d="M0 0 C2.5 2.3125 2.5 2.3125 5 5 C5 5.99 5 6.98 5 8 C3.02 6.35 1.04 4.7 -1 3 C-0.67 2.01 -0.34 1.02 0 0 Z " fill="#DA15E6" transform="translate(113,81)"/>
<path d="M0 0 C2.96404505 2.80804268 5.44499019 5.18315774 7 9 C3.17475764 7.549046 1.80909034 5.61818068 0 2 C0 1.34 0 0.68 0 0 Z " fill="#BE0CCA" transform="translate(116,83)"/>
</svg>
