<svg id="visual" viewBox="0 0 900 600" width="900" height="600" xmlns="http://www.w3.org/2000/svg" xmlns:xlink="http://www.w3.org/1999/xlink" version="1.1"><rect x="0" y="0" width="900" height="600" fill="#002233"></rect><path d="M0 432L37.5 432.8C75 433.7 150 435.3 225 447.5C300 459.7 375 482.3 450 476C525 469.7 600 434.3 675 430.2C750 426 825 453 862.5 466.5L900 480L900 601L862.5 601C825 601 750 601 675 601C600 601 525 601 450 601C375 601 300 601 225 601C150 601 75 601 37.5 601L0 601Z" fill="#8a4baf" stroke-linecap="round" stroke-linejoin="miter"></path></svg>